<?xml version="1.0" standalone="no"?><!-- Generator: Gravit.io --><svg xmlns="http://www.w3.org/2000/svg" xmlns:xlink="http://www.w3.org/1999/xlink" style="isolation:isolate" viewBox="0 0 100 70" width="100" height="70"><defs><clipPath id="_clipPath_uoTjNlRj0eHTEIJU4bKlPBioHpVnvSYd"><rect width="100" height="70"/></clipPath></defs><g clip-path="url(#_clipPath_uoTjNlRj0eHTEIJU4bKlPBioHpVnvSYd)"><g id="Group"><g id="Group"><path d=" M 17.479 5 L 22.658 7.99 L 22.658 7.99 L 22.658 64.003 L 12.3 63.604 L 12.3 63.604 L 12.3 7.99 L 17.479 5 L 17.479 5 Z " fill="rgb(255,255,255)" vector-effect="non-scaling-stroke" stroke-width="1" stroke="rgb(0,0,0)" stroke-linejoin="miter" stroke-linecap="square" stroke-miterlimit="3"/><path d=" M 17.479 5 L 48.552 22.94 L 48.552 34.9 L 48.552 34.9 L 12.3 13.97 L 12.3 13.97 L 12.3 7.99 L 17.479 5 L 17.479 5 Z " fill="rgb(255,255,255)" vector-effect="non-scaling-stroke" stroke-width="1" stroke="rgb(0,0,0)" stroke-linejoin="miter" stroke-linecap="square" stroke-miterlimit="3"/><path d=" M 48.552 34.9 L 12.3 55.83 L 12.3 55.83 L 12.3 43.87 L 48.552 22.94 L 48.552 34.9 L 48.552 34.9 Z " fill="rgb(255,255,255)" vector-effect="non-scaling-stroke" stroke-width="1" stroke="rgb(0,0,0)" stroke-linejoin="miter" stroke-linecap="square" stroke-miterlimit="3"/><path d=" M 22.658 49.85 L 48.552 64.8 L 48.552 64.8 L 48.552 52.84 L 22.658 37.89 L 22.658 49.85 L 22.658 49.85 Z " fill="rgb(255,255,255)" vector-effect="non-scaling-stroke" stroke-width="1" stroke="rgb(0,0,0)" stroke-linejoin="miter" stroke-linecap="square" stroke-miterlimit="3"/></g><g id="Group"><path d=" M 56.593 5 L 61.771 7.99 L 61.771 7.99 L 61.771 64.003 L 51.414 63.604 L 51.414 63.604 L 51.414 7.99 L 56.593 5 L 56.593 5 Z " fill="rgb(255,255,255)" vector-effect="non-scaling-stroke" stroke-width="1" stroke="rgb(0,0,0)" stroke-linejoin="miter" stroke-linecap="square" stroke-miterlimit="3"/><path d=" M 56.593 5 L 87.666 22.94 L 87.666 34.9 L 87.666 34.9 L 51.414 13.97 L 51.414 13.97 L 51.414 7.99 L 56.593 5 L 56.593 5 Z " fill="rgb(255,255,255)" vector-effect="non-scaling-stroke" stroke-width="1" stroke="rgb(0,0,0)" stroke-linejoin="miter" stroke-linecap="square" stroke-miterlimit="3"/><path d=" M 87.666 34.9 L 51.414 55.83 L 51.414 55.83 L 51.414 43.87 L 87.666 22.94 L 87.666 34.9 L 87.666 34.9 Z " fill="rgb(255,255,255)" vector-effect="non-scaling-stroke" stroke-width="1" stroke="rgb(0,0,0)" stroke-linejoin="miter" stroke-linecap="square" stroke-miterlimit="3"/><path d=" M 61.771 49.85 L 87.666 64.8 L 87.666 64.8 L 87.666 52.84 L 61.771 37.89 L 61.771 49.85 L 61.771 49.85 Z " fill="rgb(255,255,255)" vector-effect="non-scaling-stroke" stroke-width="1" stroke="rgb(0,0,0)" stroke-linejoin="miter" stroke-linecap="square" stroke-miterlimit="3"/></g></g></g></svg>